<svg width="50" height="50" viewBox="0 0 50 50" fill="none" xmlns="http://www.w3.org/2000/svg">
<path d="M45.9263 21.5429H11.0491L22.5237 10.0683C22.8506 9.7441 23.1101 9.35836 23.2871 8.93335C23.4642 8.50834 23.5554 8.05247 23.5554 7.59205C23.5554 7.13163 23.4642 6.67576 23.2871 6.25075C23.1101 5.82574 22.8506 5.44 22.5237 5.11577C21.8702 4.46617 20.9863 4.10156 20.0649 4.10156C19.1435 4.10156 18.2595 4.46617 17.606 5.11577L2.64369 20.113C1.33375 21.4151 0.593725 23.1836 0.585938 25.0307C0.602911 26.8656 1.34223 28.6199 2.64369 29.9135L17.606 44.9107C17.9312 45.2336 18.3168 45.4893 18.7408 45.6632C19.1648 45.837 19.6189 45.9257 20.0772 45.9241C20.5355 45.9224 20.9889 45.8306 21.4117 45.6537C21.8345 45.4768 22.2183 45.2184 22.5412 44.8932C22.8641 44.5681 23.1197 44.1824 23.2936 43.7584C23.4675 43.3344 23.5562 42.8803 23.5545 42.4221C23.5529 41.9638 23.461 41.5103 23.2842 41.0876C23.1073 40.6648 22.8489 40.281 22.5237 39.9581L11.0491 28.5184H45.9263C46.8513 28.5184 47.7385 28.1509 48.3925 27.4969C49.0466 26.8428 49.4141 25.9557 49.4141 25.0307C49.4141 24.1057 49.0466 23.2185 48.3925 22.5645C47.7385 21.9104 46.8513 21.5429 45.9263 21.5429Z" fill="black"/>
</svg>
