<svg width="500" height="500" viewBox="0 0 500 500" fill="none" xmlns="http://www.w3.org/2000/svg">
<g clip-path="url(#clip0_56_2)">
<path d="M364.931 371.1C376.228 359.7 385.953 347.3 394.303 334.2L488.212 429.7C495.874 437.5 500 447.8 500 458.8C500 469.8 495.776 480.1 488.114 487.9C480.452 495.7 470.334 499.9 459.528 499.9C448.723 499.9 438.605 495.6 430.943 487.9L338.605 394C347.839 387.1 356.68 379.5 364.931 371.1ZM445.678 469C453.733 477.2 466.798 477.2 474.853 469C482.908 460.8 482.908 447.5 474.853 439.3C466.798 431.1 453.733 431.1 445.678 439.3C437.623 447.5 437.623 460.8 445.678 469Z" fill="#022135"/>
<path d="M4.81342 168.1C3.43817 201.5 11.002 235.7 28.4873 266.7C38.7034 284.8 51.67 300.8 67.0924 314.3C68.3694 315.5 70.0393 316 71.6111 316C73.5757 316 75.5403 315.2 76.9156 313.5C79.3714 310.6 79.0767 306.1 76.228 303.6C61.9843 291.1 50 276.3 40.5698 259.6C3.53638 193.9 14.7348 113.2 62.8684 60.4C62.9666 60.4 62.9667 60.2999 62.9667 60.2999C101.965 21.5999 153.438 0.199951 208.055 0.199951C263.556 0.199951 315.815 22.1999 355.108 62.0999C421.316 129.5 433.399 231.3 391.454 311.3C390.373 313.5 389.195 315.6 387.918 317.7C386.739 319.8 385.462 321.9 384.185 323.9C376.032 337.1 366.307 349.6 355.01 361.1C346.758 369.5 337.918 377.1 328.586 383.8C326.719 385.2 324.754 386.6 322.79 387.9C320.825 389.2 318.762 390.5 316.798 391.8C284.381 412.1 246.955 423 207.957 423C152.456 423 100.197 401 61.002 361.1C9.62677 308.8 -9.1355 235.6 4.81342 168.1ZM118.468 302.7C155.796 340.7 210.707 350 256.68 330.6C258.939 329.7 261.199 328.6 263.458 327.5C265.619 326.4 267.78 325.3 269.941 324.1C279.863 318.4 289.195 311.3 297.643 302.7C309.234 290.9 318.075 277.4 324.263 263C325.246 260.6 326.228 258.3 327.014 255.9C327.898 253.4 328.684 250.9 329.47 248.4C342.24 204.6 331.631 155.2 297.643 120.5C248.134 70.2 167.976 70.2 118.468 120.5C69.057 170.9 69.057 252.4 118.468 302.7Z" fill="#022135"/>
<path fill-rule="evenodd" clip-rule="evenodd" d="M208.252 312C154 312 110.02 267.228 110.02 212C110.02 156.772 154 112 208.252 112C262.504 112 306.483 156.772 306.483 212C306.483 267.228 262.504 312 208.252 312ZM119.616 212.116C119.616 213.59 119.652 215.065 119.722 216.537C119.793 218.009 119.9 219.481 120.043 220.949C120.184 222.417 120.361 223.88 120.573 225.338C120.787 226.796 121.034 228.25 121.316 229.697C121.598 231.144 121.917 232.581 122.269 234.012C122.622 235.442 123.006 236.863 123.427 238.275C123.847 239.685 124.302 241.086 124.791 242.475C125.278 243.863 125.801 245.238 126.353 246.602C126.908 247.963 127.495 249.312 128.115 250.646C128.734 251.979 129.386 253.296 130.069 254.595C130.751 255.896 131.465 257.178 132.211 258.444C132.954 259.708 133.73 260.956 134.535 262.181C135.339 263.407 136.174 264.613 137.036 265.799C137.9 266.981 138.791 268.144 139.71 269.285C140.629 270.424 141.574 271.542 142.548 272.634C143.521 273.727 144.519 274.794 145.542 275.838C146.568 276.88 147.616 277.896 148.689 278.887C149.763 279.877 150.861 280.84 151.98 281.775C153.101 282.711 154.242 283.618 155.404 284.498C156.568 285.375 157.753 286.225 158.958 287.044C160.161 287.863 161.387 288.653 162.628 289.41C163.872 290.169 165.132 290.896 166.41 291.59C167.685 292.285 168.979 292.949 170.289 293.579C171.599 294.211 172.925 294.808 174.262 295.373C175.601 295.935 176.952 296.468 178.316 296.963C179.68 297.461 181.056 297.924 182.441 298.352C183.828 298.78 185.224 299.171 186.629 299.53C188.034 299.889 189.447 300.213 190.868 300.5C192.289 300.787 193.717 301.039 195.149 301.257C196.582 301.472 198.019 301.653 199.461 301.796C200.902 301.942 202.349 302.051 203.795 302.123C205.241 302.194 206.689 302.231 208.138 302.231C209.586 302.231 211.035 302.194 212.481 302.123C213.929 302.051 215.373 301.942 216.815 301.796C218.257 301.653 219.694 301.472 221.126 301.257C222.561 301.039 223.987 300.787 225.408 300.5C226.829 300.213 228.241 299.889 229.647 299.53C231.052 299.171 232.448 298.78 233.835 298.352C235.222 297.924 236.596 297.461 237.96 296.963C239.324 296.468 240.675 295.935 242.014 295.373C243.354 294.808 244.677 294.211 245.987 293.579C247.296 292.949 248.59 292.285 249.868 291.59C251.144 290.896 252.406 290.169 253.647 289.41C254.891 288.653 256.115 287.863 257.317 287.044C258.523 286.225 259.707 285.375 260.872 284.498C262.034 283.618 263.177 282.711 264.296 281.775C265.417 280.84 266.513 279.877 267.586 278.887C268.66 277.896 269.708 276.88 270.733 275.838C271.757 274.794 272.755 273.727 273.728 272.634C274.701 271.542 275.647 270.424 276.566 269.285C277.487 268.144 278.376 266.981 279.24 265.799C280.102 264.613 280.936 263.407 281.741 262.181C282.546 260.956 283.322 259.708 284.065 258.444C284.811 257.178 285.525 255.896 286.207 254.595C286.892 253.296 287.542 251.979 288.16 250.646C288.781 249.312 289.368 247.963 289.923 246.602C290.478 245.238 290.998 243.863 291.485 242.475C291.974 241.086 292.429 239.685 292.849 238.275C293.27 236.863 293.656 235.442 294.007 234.012C294.359 232.581 294.677 231.144 294.959 229.697C295.241 228.25 295.489 226.796 295.703 225.338C295.914 223.88 296.092 222.417 296.235 220.949C296.376 219.481 296.483 218.009 296.553 216.537C296.624 215.065 296.66 213.59 296.66 212.116C296.66 210.641 296.624 209.167 296.553 207.694C296.483 206.22 296.376 204.75 296.235 203.282C296.092 201.815 295.914 200.352 295.703 198.894C295.489 197.433 295.241 195.981 294.959 194.535C294.677 193.088 294.359 191.65 294.007 190.22C293.656 188.789 293.27 187.368 292.849 185.956C292.429 184.544 291.974 183.146 291.485 181.757C290.998 180.368 290.478 178.993 289.923 177.63C289.368 176.266 288.781 174.919 288.16 173.586C287.542 172.252 286.892 170.935 286.207 169.634C285.525 168.336 284.811 167.051 284.065 165.787C283.322 164.521 282.546 163.275 281.741 162.051C280.936 160.824 280.102 159.618 279.24 158.433C278.376 157.25 277.487 156.086 276.566 154.947C275.647 153.806 274.701 152.69 273.728 151.597C272.755 150.505 271.757 149.438 270.733 148.394C269.708 147.352 268.66 146.336 267.586 145.345C266.513 144.354 265.417 143.391 264.296 142.456C263.177 141.519 262.034 140.613 260.872 139.734C259.707 138.856 258.523 138.007 257.317 137.188C256.115 136.368 254.891 135.579 253.647 134.822C252.406 134.062 251.144 133.336 249.868 132.641C248.59 131.944 247.296 131.282 245.987 130.653C244.677 130.021 243.354 129.424 242.014 128.859C240.675 128.294 239.324 127.764 237.96 127.269C236.596 126.771 235.222 126.308 233.835 125.88C232.448 125.451 231.052 125.058 229.647 124.701C228.241 124.343 226.829 124.019 225.408 123.731C223.987 123.444 222.561 123.192 221.126 122.975C219.694 122.759 218.257 122.579 216.815 122.433C215.373 122.289 213.929 122.181 212.481 122.109C211.035 122.037 209.586 122 208.138 122C206.689 122 205.241 122.037 203.795 122.109C202.349 122.181 200.902 122.289 199.461 122.433C198.019 122.579 196.582 122.759 195.149 122.975C193.717 123.192 192.289 123.444 190.868 123.731C189.447 124.019 188.034 124.343 186.629 124.701C185.224 125.058 183.828 125.451 182.441 125.88C181.056 126.308 179.68 126.771 178.316 127.269C176.952 127.764 175.601 128.294 174.262 128.859C172.925 129.424 171.599 130.021 170.289 130.653C168.979 131.282 167.685 131.944 166.41 132.641C165.132 133.336 163.872 134.062 162.628 134.822C161.387 135.579 160.161 136.368 158.958 137.188C157.753 138.007 156.568 138.856 155.404 139.734C154.242 140.613 153.101 141.519 151.98 142.456C150.861 143.391 149.763 144.354 148.689 145.345C147.616 146.336 146.568 147.352 145.542 148.394C144.519 149.438 143.521 150.505 142.548 151.597C141.574 152.69 140.629 153.806 139.71 154.947C138.791 156.086 137.9 157.25 137.036 158.433C136.174 159.618 135.339 160.824 134.535 162.051C133.73 163.275 132.954 164.521 132.211 165.787C131.465 167.051 130.751 168.336 130.069 169.634C129.386 170.935 128.734 172.252 128.115 173.586C127.495 174.919 126.908 176.266 126.353 177.63C125.801 178.993 125.278 180.368 124.791 181.757C124.302 183.146 123.847 184.544 123.427 185.956C123.006 187.368 122.622 188.789 122.269 190.22C121.917 191.65 121.598 193.088 121.316 194.535C121.034 195.981 120.787 197.433 120.573 198.894C120.361 200.352 120.184 201.815 120.043 203.282C119.9 204.75 119.793 206.22 119.722 207.694C119.652 209.167 119.616 210.641 119.616 212.116ZM254.377 188.586L289.445 209.03C289.482 210.053 289.507 211.081 289.507 212.116C289.507 240.354 275.622 265.289 254.425 280.241L254.377 188.586ZM165.018 183.09L164.9 141.938C177.429 133.924 192.25 129.282 208.138 129.282C220.617 129.282 232.439 132.146 243.008 137.257L165.018 183.09ZM251.26 241.139L251.376 282.292C238.849 290.306 224.028 294.947 208.138 294.947C195.659 294.947 183.839 292.083 173.27 286.972L251.26 241.139ZM211.31 159.588L289.247 205.484C286.996 176.59 270.185 151.873 246.28 138.935L211.31 159.588ZM204.966 264.641L127.031 218.748C129.279 247.641 146.093 272.357 169.996 285.296L204.966 264.641ZM161.901 235.646L126.833 215.199C126.796 214.176 126.769 213.148 126.769 212.116C126.769 183.875 140.656 158.942 161.851 143.988L161.901 235.646Z" fill="#022135"/>
<path fill-rule="evenodd" clip-rule="evenodd" d="M219.232 173.285C198.174 167.051 176.121 179.375 169.998 200.822C163.865 222.262 175.98 244.702 197.048 250.945C218.115 257.178 240.159 244.854 246.282 223.408C252.406 201.961 240.3 179.521 219.232 173.285ZM211.951 180.447C211.951 180.683 211.974 180.914 212.019 181.146C212.065 181.377 212.131 181.6 212.22 181.817C212.308 182.035 212.417 182.241 212.545 182.438C212.672 182.632 212.82 182.815 212.981 182.979C213.145 183.146 213.322 183.294 213.516 183.426C213.707 183.556 213.911 183.667 214.125 183.757C214.337 183.847 214.557 183.914 214.784 183.961C215.01 184.007 215.239 184.03 215.471 184.03C215.701 184.03 215.931 184.007 216.158 183.961C216.383 183.914 216.604 183.847 216.817 183.757C217.031 183.667 217.233 183.556 217.424 183.426C217.618 183.294 217.795 183.146 217.959 182.979C218.123 182.815 218.268 182.632 218.395 182.438C218.525 182.241 218.634 182.035 218.721 181.817C218.809 181.6 218.877 181.377 218.923 181.146C218.966 180.914 218.989 180.683 218.989 180.447C218.989 180.211 218.966 179.979 218.923 179.748C218.877 179.519 218.809 179.294 218.721 179.076C218.634 178.859 218.525 178.653 218.395 178.456C218.268 178.262 218.123 178.081 217.959 177.914C217.795 177.748 217.618 177.6 217.424 177.468C217.233 177.338 217.031 177.227 216.817 177.137C216.604 177.046 216.383 176.979 216.158 176.933C215.931 176.887 215.701 176.866 215.471 176.866C215.239 176.866 215.01 176.887 214.784 176.933C214.557 176.979 214.337 177.046 214.125 177.137C213.911 177.227 213.707 177.338 213.516 177.468C213.322 177.6 213.145 177.748 212.981 177.914C212.82 178.081 212.672 178.262 212.545 178.456C212.417 178.653 212.308 178.859 212.22 179.076C212.131 179.294 212.065 179.519 212.019 179.748C211.974 179.979 211.951 180.211 211.951 180.447ZM238.565 207.053C236.691 207.065 235.152 205.567 235.067 203.678C233.965 198.037 228.796 191.405 223.798 188.829C222.136 187.97 221.31 185.979 222.065 184.206C222.834 182.41 224.958 181.507 226.709 182.405C234.356 186.331 241.234 194.461 242.01 203.38C242.185 205.373 240.477 207.04 238.565 207.053Z" fill="#022135"/>
</g>
<defs>
<clipPath id="clip0_56_2">
<rect width="500" height="500" fill="white" transform="matrix(-1 0 0 1 500 0)"/>
</clipPath>
</defs>
</svg>
