<svg width="500" height="500" viewBox="0 0 500 500" fill="none" xmlns="http://www.w3.org/2000/svg">
<mask id="mask0_128_81" style="mask-type:luminance" maskUnits="userSpaceOnUse" x="302" y="247" width="98" height="101">
<path d="M302.868 247.389H400V347H302.868V247.389Z" fill="white"/>
</mask>
<g mask="url(#mask0_128_81)">
<path d="M318.906 269.66C325.666 262.798 331.539 255.363 336.531 247.511L392.922 304.834C397.511 309.5 400.03 315.696 400.03 322.295C400.03 328.88 397.511 335.08 392.922 339.746C388.334 344.408 382.235 346.971 375.757 346.971C369.269 346.971 363.17 344.408 358.581 339.746L303.142 283.384C308.682 279.28 313.96 274.697 318.906 269.66ZM367.401 328.398C372.251 333.316 380.094 333.316 384.934 328.398C389.784 323.469 389.784 315.495 384.934 310.577C380.094 305.659 372.251 305.644 367.401 310.577C362.561 315.495 362.561 323.483 367.401 328.398Z" fill="#1F555F"/>
</g>
<path d="M258.055 243.522L293.716 279.776C294.879 278.977 296.033 278.167 297.172 277.321C302.762 273.274 308.061 268.72 313.017 263.679C319.792 256.792 325.619 249.3 330.504 241.383C331.265 240.152 332.015 238.906 332.716 237.65L296.21 200.553C295.7 201.989 295.141 203.415 294.547 204.83C290.839 213.47 285.515 221.578 278.56 228.649C273.497 233.797 267.887 238.074 261.918 241.48C260.645 242.193 259.364 242.881 258.055 243.522Z" fill="#1F555F"/>
<path d="M180.316 164.494L204.648 189.231H209.806V194.473L234.139 219.21C235.268 218.364 236.276 217.363 237.097 216.251C238.784 213.99 239.771 211.235 239.771 208.272V189.231H258.503C263.927 189.231 268.597 185.775 270.843 180.734C271.498 179.298 271.936 177.724 272.138 176.072L255.107 158.755H239.771V143.166L222.74 125.849C221.11 126.054 219.564 126.5 218.152 127.166C216.677 127.843 215.343 128.751 214.193 129.823C211.483 132.351 209.806 135.854 209.806 139.724V158.755H191.074C188.148 158.755 185.453 159.759 183.227 161.484C182.124 162.319 181.147 163.334 180.316 164.494Z" fill="#1F555F"/>
<path d="M258.508 158.755C259.46 158.755 260.387 158.863 261.289 159.068C261.289 159.068 261.289 159.068 261.3 159.068L271.7 169.642C272.068 171.021 272.27 172.483 272.27 173.991C272.27 174.693 272.224 175.392 272.139 176.072C271.938 177.724 271.499 179.298 270.844 180.734L249.222 158.755H258.508ZM180.317 164.494C181.149 163.334 182.125 162.319 183.229 161.484L209.808 188.504L210.522 189.227L237.098 216.251C236.277 217.359 235.269 218.364 234.14 219.21C232.984 220.067 231.689 220.78 230.288 221.291L209.808 200.467V189.227H198.752L178.272 168.407C178.771 166.981 179.461 165.667 180.317 164.494ZM258.055 243.522C259.361 242.881 260.645 242.194 261.919 241.481L297.172 277.321C296.033 278.167 294.88 278.977 293.712 279.777C292.524 280.572 291.324 281.346 290.111 282.106L253.976 245.373C255.356 244.804 256.711 244.185 258.055 243.522ZM296.21 200.554C296.748 199.067 297.232 197.565 297.685 196.057L334.817 233.805C334.152 235.101 333.452 236.383 332.716 237.65C332.015 238.907 331.265 240.152 330.505 241.384L294.547 204.831C295.141 203.416 295.7 201.99 296.21 200.554ZM222.742 125.849C223.407 125.766 224.097 125.719 224.787 125.719C226.272 125.719 227.709 125.924 229.064 126.295L239.454 136.858C239.666 137.791 239.772 138.741 239.772 139.72V149.146L218.153 127.166C219.565 126.5 221.111 126.054 222.742 125.849Z" fill="white"/>
<mask id="mask1_128_81" style="mask-type:luminance" maskUnits="userSpaceOnUse" x="100" y="46" width="250" height="255">
<path d="M100 46.9999H349.962V300.845H100V46.9999Z" fill="white"/>
</mask>
<g mask="url(#mask1_128_81)">
<path d="M222.742 125.848C223.408 125.765 224.097 125.719 224.787 125.719C226.273 125.719 227.709 125.924 229.064 126.295C234.307 127.745 238.337 131.807 239.455 136.858C239.667 137.79 239.773 138.741 239.773 139.72V149.145L218.154 127.166C219.566 126.5 221.112 126.053 222.742 125.848ZM178.273 168.41L198.753 189.23H191.076C183.467 189.23 177.311 182.404 177.311 173.99C177.311 172.021 177.643 170.138 178.273 168.41ZM268.241 163.226C269.833 164.99 271.036 167.186 271.701 169.641L261.3 159.067C263.989 159.672 266.377 161.159 268.241 163.226ZM178.273 168.41L198.753 189.23H191.076C183.467 189.23 177.311 182.404 177.311 173.99C177.311 172.021 177.643 170.138 178.273 168.41ZM214.195 129.823C215.349 128.75 216.679 127.843 218.154 127.166C219.566 126.5 221.112 126.053 222.742 125.848C223.408 125.765 224.097 125.719 224.787 125.719C226.273 125.719 227.709 125.924 229.064 126.295C234.307 127.745 238.337 131.807 239.455 136.858C239.667 137.79 239.773 138.741 239.773 139.72V158.754H209.809V139.72C209.809 135.853 211.485 132.35 214.195 129.823ZM258.509 158.754C259.461 158.754 260.388 158.862 261.29 159.067C261.29 159.067 261.29 159.067 261.3 159.067C263.989 159.672 266.377 161.159 268.241 163.226C269.833 164.99 271.036 167.186 271.701 169.641C272.069 171.02 272.271 172.482 272.271 173.99C272.271 174.692 272.225 175.391 272.14 176.071C271.938 177.724 271.5 179.297 270.845 180.734C268.599 185.774 263.929 189.23 258.505 189.23H239.773V158.754H258.509ZM178.273 168.41C178.772 166.981 179.462 165.667 180.318 164.493L204.651 189.23H191.076C183.467 189.23 177.311 182.404 177.311 173.99C177.311 172.021 177.643 170.138 178.273 168.41ZM191.076 158.754H209.809V188.503L183.23 161.483C185.455 159.759 188.151 158.754 191.076 158.754ZM214.195 129.823C215.349 128.75 216.679 127.843 218.154 127.166C219.566 126.5 221.112 126.053 222.742 125.848C223.408 125.765 224.097 125.719 224.787 125.719C226.273 125.719 227.709 125.924 229.064 126.295C234.307 127.745 238.337 131.807 239.455 136.858C239.667 137.79 239.773 138.741 239.773 139.72V158.754H209.809V139.72C209.809 135.853 211.485 132.35 214.195 129.823ZM258.509 158.754C259.461 158.754 260.388 158.862 261.29 159.067C261.29 159.067 261.29 159.067 261.3 159.067C263.989 159.672 266.377 161.159 268.241 163.226C269.833 164.99 271.036 167.186 271.701 169.641C272.069 171.02 272.271 172.482 272.271 173.99C272.271 174.692 272.225 175.391 272.14 176.071C271.938 177.724 271.5 179.297 270.845 180.734C268.599 185.774 263.929 189.23 258.505 189.23H239.773V158.754H258.509ZM178.273 168.41C178.772 166.981 179.462 165.667 180.318 164.493C181.149 163.334 182.126 162.318 183.23 161.483C185.455 159.759 188.151 158.754 191.076 158.754H209.809V139.723C209.809 135.853 211.485 132.354 214.195 129.823C215.349 128.75 216.679 127.843 218.154 127.166C219.566 126.5 221.112 126.053 222.742 125.848C223.408 125.765 224.097 125.719 224.787 125.719C226.273 125.719 227.709 125.924 229.064 126.295C234.307 127.745 238.337 131.807 239.455 136.858C239.667 137.79 239.773 138.741 239.773 139.72V158.754H258.509C259.461 158.754 260.388 158.862 261.29 159.067C261.29 159.067 261.29 159.067 261.3 159.067C263.989 159.672 266.377 161.159 268.241 163.222C269.833 164.99 271.036 167.186 271.701 169.641C272.069 171.02 272.271 172.482 272.271 173.99C272.271 174.692 272.225 175.391 272.14 176.071C271.938 177.724 271.5 179.297 270.845 180.734C268.599 185.774 263.929 189.23 258.505 189.23H239.773V208.272C239.773 211.235 238.786 213.989 237.099 216.25C236.278 217.362 235.27 218.363 234.141 219.209C232.984 220.07 231.689 220.783 230.288 221.29C228.587 221.917 226.733 222.266 224.784 222.266C216.513 222.266 209.809 216.009 209.809 208.275V189.23H191.073C183.467 189.23 177.307 182.404 177.307 173.994C177.311 172.021 177.643 170.138 178.273 168.41ZM178.273 168.41C178.772 166.981 179.462 165.667 180.318 164.493C181.149 163.334 182.126 162.318 183.23 161.483C185.455 159.759 188.151 158.754 191.076 158.754H209.809V139.723C209.809 135.853 211.485 132.354 214.195 129.823C215.349 128.75 216.679 127.843 218.154 127.166C219.566 126.5 221.112 126.053 222.742 125.848C223.408 125.765 224.097 125.719 224.787 125.719C226.273 125.719 227.709 125.924 229.064 126.295C234.307 127.745 238.337 131.807 239.455 136.858C239.667 137.79 239.773 138.741 239.773 139.72V158.754H258.509C259.461 158.754 260.388 158.862 261.29 159.067C261.29 159.067 261.29 159.067 261.3 159.067C263.989 159.672 266.377 161.159 268.241 163.222C269.833 164.99 271.036 167.186 271.701 169.641C272.069 171.02 272.271 172.482 272.271 173.99C272.271 174.692 272.225 175.391 272.14 176.071C271.938 177.724 271.5 179.297 270.845 180.734C268.599 185.774 263.929 189.23 258.505 189.23H239.773V208.272C239.773 211.235 238.786 213.989 237.099 216.25C236.278 217.362 235.27 218.363 234.141 219.209C232.984 220.07 231.689 220.783 230.288 221.29C228.587 221.917 226.733 222.266 224.784 222.266C216.513 222.266 209.809 216.009 209.809 208.275V189.23H191.073C183.467 189.23 177.307 182.404 177.307 173.994C177.311 172.021 177.643 170.138 178.273 168.41ZM178.273 168.41C178.772 166.981 179.462 165.667 180.318 164.493C181.149 163.334 182.126 162.318 183.23 161.483C185.455 159.759 188.151 158.754 191.076 158.754H209.809V139.723C209.809 135.853 211.485 132.354 214.195 129.823C215.349 128.75 216.679 127.843 218.154 127.166C219.566 126.5 221.112 126.053 222.742 125.848C223.408 125.765 224.097 125.719 224.787 125.719C226.273 125.719 227.709 125.924 229.064 126.295C234.307 127.745 238.337 131.807 239.455 136.858C239.667 137.79 239.773 138.741 239.773 139.72V158.754H258.509C259.461 158.754 260.388 158.862 261.29 159.067C261.29 159.067 261.29 159.067 261.3 159.067C263.989 159.672 266.377 161.159 268.241 163.222C269.833 164.99 271.036 167.186 271.701 169.641C272.069 171.02 272.271 172.482 272.271 173.99C272.271 174.692 272.225 175.391 272.14 176.071C271.938 177.724 271.5 179.297 270.845 180.734C268.599 185.774 263.929 189.23 258.505 189.23H239.773V208.272C239.773 211.235 238.786 213.989 237.099 216.25C236.278 217.362 235.27 218.363 234.141 219.209C232.984 220.07 231.689 220.783 230.288 221.29C228.587 221.917 226.733 222.266 224.784 222.266C216.513 222.266 209.809 216.009 209.809 208.275V189.23H191.073C183.467 189.23 177.307 182.404 177.307 173.994C177.311 172.021 177.643 170.138 178.273 168.41ZM178.273 168.41C178.772 166.981 179.462 165.667 180.318 164.493C181.149 163.334 182.126 162.318 183.23 161.483C185.455 159.759 188.151 158.754 191.076 158.754H209.809V139.723C209.809 135.853 211.485 132.354 214.195 129.823C215.349 128.75 216.679 127.843 218.154 127.166C219.566 126.5 221.112 126.053 222.742 125.848C223.408 125.765 224.097 125.719 224.787 125.719C226.273 125.719 227.709 125.924 229.064 126.295C234.307 127.745 238.337 131.807 239.455 136.858C239.667 137.79 239.773 138.741 239.773 139.72V158.754H258.509C259.461 158.754 260.388 158.862 261.29 159.067C261.29 159.067 261.29 159.067 261.3 159.067C263.989 159.672 266.377 161.159 268.241 163.222C269.833 164.99 271.036 167.186 271.701 169.641C272.069 171.02 272.271 172.482 272.271 173.99C272.271 174.692 272.225 175.391 272.14 176.071C271.938 177.724 271.5 179.297 270.845 180.734C268.599 185.774 263.929 189.23 258.505 189.23H239.773V208.272C239.773 211.235 238.786 213.989 237.099 216.25C236.278 217.362 235.27 218.363 234.141 219.209C232.984 220.07 231.689 220.783 230.288 221.29C228.587 221.917 226.733 222.266 224.784 222.266C216.513 222.266 209.809 216.009 209.809 208.275V189.23H191.073C183.467 189.23 177.307 182.404 177.307 173.994C177.311 172.021 177.643 170.138 178.273 168.41ZM178.273 168.41C178.772 166.981 179.462 165.667 180.318 164.493C181.149 163.334 182.126 162.318 183.23 161.483C185.455 159.759 188.151 158.754 191.076 158.754H209.809V139.723C209.809 135.853 211.485 132.354 214.195 129.823C215.349 128.75 216.679 127.843 218.154 127.166C219.566 126.5 221.112 126.053 222.742 125.848C223.408 125.765 224.097 125.719 224.787 125.719C226.273 125.719 227.709 125.924 229.064 126.295C234.307 127.745 238.337 131.807 239.455 136.858C239.667 137.79 239.773 138.741 239.773 139.72V158.754H258.509C259.461 158.754 260.388 158.862 261.29 159.067C261.29 159.067 261.29 159.067 261.3 159.067C263.989 159.672 266.377 161.159 268.241 163.222C269.833 164.99 271.036 167.186 271.701 169.641C272.069 171.02 272.271 172.482 272.271 173.99C272.271 174.692 272.225 175.391 272.14 176.071C271.938 177.724 271.5 179.297 270.845 180.734C268.599 185.774 263.929 189.23 258.505 189.23H239.773V208.272C239.773 211.235 238.786 213.989 237.099 216.25C236.278 217.362 235.27 218.363 234.141 219.209C232.984 220.07 231.689 220.783 230.288 221.29C228.587 221.917 226.733 222.266 224.784 222.266C216.513 222.266 209.809 216.009 209.809 208.275V189.23H191.073C183.467 189.23 177.307 182.404 177.307 173.994C177.311 172.021 177.643 170.138 178.273 168.41ZM178.273 168.41C178.772 166.981 179.462 165.667 180.318 164.493C181.149 163.334 182.126 162.318 183.23 161.483C185.455 159.759 188.151 158.754 191.076 158.754H209.809V139.723C209.809 135.853 211.485 132.354 214.195 129.823C215.349 128.75 216.679 127.843 218.154 127.166C219.566 126.5 221.112 126.053 222.742 125.848C223.408 125.765 224.097 125.719 224.787 125.719C226.273 125.719 227.709 125.924 229.064 126.295C234.307 127.745 238.337 131.807 239.455 136.858C239.667 137.79 239.773 138.741 239.773 139.72V158.754H258.509C259.461 158.754 260.388 158.862 261.29 159.067C261.29 159.067 261.29 159.067 261.3 159.067C263.989 159.672 266.377 161.159 268.241 163.222C269.833 164.99 271.036 167.186 271.701 169.641C272.069 171.02 272.271 172.482 272.271 173.99C272.271 174.692 272.225 175.391 272.14 176.071C271.938 177.724 271.5 179.297 270.845 180.734C268.599 185.774 263.929 189.23 258.505 189.23H239.773V208.272C239.773 211.235 238.786 213.989 237.099 216.25C236.278 217.362 235.27 218.363 234.141 219.209C232.984 220.07 231.689 220.783 230.288 221.29C228.587 221.917 226.733 222.266 224.784 222.266C216.513 222.266 209.809 216.009 209.809 208.275V189.23H191.073C183.467 189.23 177.307 182.404 177.307 173.994C177.311 172.021 177.643 170.138 178.273 168.41ZM178.273 168.41C178.772 166.981 179.462 165.667 180.318 164.493C181.149 163.334 182.126 162.318 183.23 161.483C185.455 159.759 188.151 158.754 191.076 158.754H209.809V139.723C209.809 135.853 211.485 132.354 214.195 129.823C215.349 128.75 216.679 127.843 218.154 127.166C219.566 126.5 221.112 126.053 222.742 125.848C223.408 125.765 224.097 125.719 224.787 125.719C226.273 125.719 227.709 125.924 229.064 126.295C234.307 127.745 238.337 131.807 239.455 136.858C239.667 137.79 239.773 138.741 239.773 139.72V158.754H258.509C259.461 158.754 260.388 158.862 261.29 159.067C261.29 159.067 261.29 159.067 261.3 159.067C263.989 159.672 266.377 161.159 268.241 163.222C269.833 164.99 271.036 167.186 271.701 169.641C272.069 171.02 272.271 172.482 272.271 173.99C272.271 174.692 272.225 175.391 272.14 176.071C271.938 177.724 271.5 179.297 270.845 180.734C268.599 185.774 263.929 189.23 258.505 189.23H239.773V208.272C239.773 211.235 238.786 213.989 237.099 216.25C236.278 217.362 235.27 218.363 234.141 219.209C232.984 220.07 231.689 220.783 230.288 221.29C228.587 221.917 226.733 222.266 224.784 222.266C216.513 222.266 209.809 216.009 209.809 208.275V189.23H191.073C183.467 189.23 177.307 182.404 177.307 173.994C177.311 172.021 177.643 170.138 178.273 168.41ZM178.273 168.41C178.772 166.981 179.462 165.667 180.318 164.493C181.149 163.334 182.126 162.318 183.23 161.483C185.455 159.759 188.151 158.754 191.076 158.754H209.809V139.723C209.809 135.853 211.485 132.354 214.195 129.823C215.349 128.75 216.679 127.843 218.154 127.166C219.566 126.5 221.112 126.053 222.742 125.848C223.408 125.765 224.097 125.719 224.787 125.719C226.273 125.719 227.709 125.924 229.064 126.295C234.307 127.745 238.337 131.807 239.455 136.858C239.667 137.79 239.773 138.741 239.773 139.72V158.754H258.509C259.461 158.754 260.388 158.862 261.29 159.067C261.29 159.067 261.29 159.067 261.3 159.067C263.989 159.672 266.377 161.159 268.241 163.222C269.833 164.99 271.036 167.186 271.701 169.641C272.069 171.02 272.271 172.482 272.271 173.99C272.271 174.692 272.225 175.391 272.14 176.071C271.938 177.724 271.5 179.297 270.845 180.734C268.599 185.774 263.929 189.23 258.505 189.23H239.773V208.272C239.773 211.235 238.786 213.989 237.099 216.25C236.278 217.362 235.27 218.363 234.141 219.209C232.984 220.07 231.689 220.783 230.288 221.29C228.587 221.917 226.733 222.266 224.784 222.266C216.513 222.266 209.809 216.009 209.809 208.275V189.23H191.073C183.467 189.23 177.307 182.404 177.307 173.994C177.311 172.021 177.643 170.138 178.273 168.41ZM178.273 168.41C178.772 166.981 179.462 165.667 180.318 164.493C181.149 163.334 182.126 162.318 183.23 161.483C185.455 159.759 188.151 158.754 191.076 158.754H209.809V139.723C209.809 135.853 211.485 132.354 214.195 129.823C215.349 128.75 216.679 127.843 218.154 127.166C219.566 126.5 221.112 126.053 222.742 125.848C223.408 125.765 224.097 125.719 224.787 125.719C226.273 125.719 227.709 125.924 229.064 126.295C234.307 127.745 238.337 131.807 239.455 136.858C239.667 137.79 239.773 138.741 239.773 139.72V158.754H258.509C259.461 158.754 260.388 158.862 261.29 159.067C261.29 159.067 261.29 159.067 261.3 159.067C263.989 159.672 266.377 161.159 268.241 163.222C269.833 164.99 271.036 167.186 271.701 169.641C272.069 171.02 272.271 172.482 272.271 173.99C272.271 174.692 272.225 175.391 272.14 176.071C271.938 177.724 271.5 179.297 270.845 180.734C268.599 185.774 263.929 189.23 258.505 189.23H239.773V208.272C239.773 211.235 238.786 213.989 237.099 216.25C236.278 217.362 235.27 218.363 234.141 219.209C232.984 220.07 231.689 220.783 230.288 221.29C228.587 221.917 226.733 222.266 224.784 222.266C216.513 222.266 209.809 216.009 209.809 208.275V189.23H191.073C183.467 189.23 177.307 182.404 177.307 173.994C177.311 172.021 177.643 170.138 178.273 168.41ZM178.273 168.41C178.772 166.981 179.462 165.667 180.318 164.493C181.149 163.334 182.126 162.318 183.23 161.483C185.455 159.759 188.151 158.754 191.076 158.754H209.809V139.723C209.809 135.853 211.485 132.354 214.195 129.823C215.349 128.75 216.679 127.843 218.154 127.166C219.566 126.5 221.112 126.053 222.742 125.848C223.408 125.765 224.097 125.719 224.787 125.719C226.273 125.719 227.709 125.924 229.064 126.295C234.307 127.745 238.337 131.807 239.455 136.858C239.667 137.79 239.773 138.741 239.773 139.72V158.754H258.509C259.461 158.754 260.388 158.862 261.29 159.067C261.29 159.067 261.29 159.067 261.3 159.067C263.989 159.672 266.377 161.159 268.241 163.222C269.833 164.99 271.036 167.186 271.701 169.641C272.069 171.02 272.271 172.482 272.271 173.99C272.271 174.692 272.225 175.391 272.14 176.071C271.938 177.724 271.5 179.297 270.845 180.734C268.599 185.774 263.929 189.23 258.505 189.23H239.773V208.272C239.773 211.235 238.786 213.989 237.099 216.25C236.278 217.362 235.27 218.363 234.141 219.209C232.984 220.07 231.689 220.783 230.288 221.29C228.587 221.917 226.733 222.266 224.784 222.266C216.513 222.266 209.809 216.009 209.809 208.275V189.23H191.073C183.467 189.23 177.307 182.404 177.307 173.994C177.311 172.021 177.643 170.138 178.273 168.41ZM178.273 168.41C178.772 166.981 179.462 165.667 180.318 164.493C181.149 163.334 182.126 162.318 183.23 161.483C185.455 159.759 188.151 158.754 191.076 158.754H209.809V139.723C209.809 135.853 211.485 132.354 214.195 129.823C215.349 128.75 216.679 127.843 218.154 127.166C219.566 126.5 221.112 126.053 222.742 125.848C223.408 125.765 224.097 125.719 224.787 125.719C226.273 125.719 227.709 125.924 229.064 126.295C234.307 127.745 238.337 131.807 239.455 136.858C239.667 137.79 239.773 138.741 239.773 139.72V158.754H258.509C259.461 158.754 260.388 158.862 261.29 159.067C261.29 159.067 261.29 159.067 261.3 159.067C263.989 159.672 266.377 161.159 268.241 163.222C269.833 164.99 271.036 167.186 271.701 169.641C272.069 171.02 272.271 172.482 272.271 173.99C272.271 174.692 272.225 175.391 272.14 176.071C271.938 177.724 271.5 179.297 270.845 180.734C268.599 185.774 263.929 189.23 258.505 189.23H239.773V208.272C239.773 211.235 238.786 213.989 237.099 216.25C236.278 217.362 235.27 218.363 234.141 219.209C232.984 220.07 231.689 220.783 230.288 221.29C228.587 221.917 226.733 222.266 224.784 222.266C216.513 222.266 209.809 216.009 209.809 208.275V189.23H191.073C183.467 189.23 177.307 182.404 177.307 173.994C177.311 172.021 177.643 170.138 178.273 168.41ZM178.273 168.41C178.772 166.981 179.462 165.667 180.318 164.493C181.149 163.334 182.126 162.318 183.23 161.483C185.455 159.759 188.151 158.754 191.076 158.754H209.809V139.723C209.809 135.853 211.485 132.354 214.195 129.823C215.349 128.75 216.679 127.843 218.154 127.166C219.566 126.5 221.112 126.053 222.742 125.848C223.408 125.765 224.097 125.719 224.787 125.719C226.273 125.719 227.709 125.924 229.064 126.295C234.307 127.745 238.337 131.807 239.455 136.858C239.667 137.79 239.773 138.741 239.773 139.72V158.754H258.509C259.461 158.754 260.388 158.862 261.29 159.067C261.29 159.067 261.29 159.067 261.3 159.067C263.989 159.672 266.377 161.159 268.241 163.222C269.833 164.99 271.036 167.186 271.701 169.641C272.069 171.02 272.271 172.482 272.271 173.99C272.271 174.692 272.225 175.391 272.14 176.071C271.938 177.724 271.5 179.297 270.845 180.734C268.599 185.774 263.929 189.23 258.505 189.23H239.773V208.272C239.773 211.235 238.786 213.989 237.099 216.25C236.278 217.362 235.27 218.363 234.141 219.209C232.984 220.07 231.689 220.783 230.288 221.29C228.587 221.917 226.733 222.266 224.784 222.266C216.513 222.266 209.809 216.009 209.809 208.275V189.23H191.073C183.467 189.23 177.307 182.404 177.307 173.994C177.311 172.021 177.643 170.138 178.273 168.41ZM102.771 147.853C101.925 167.888 106.468 188.384 116.985 207.015C123.12 217.881 130.917 227.497 140.175 235.605C140.961 236.296 141.937 236.634 142.889 236.634C144.063 236.634 145.227 236.127 146.048 235.158C147.548 233.394 147.357 230.723 145.609 229.189C137.062 221.711 129.859 212.83 124.202 202.799C101.95 163.381 108.689 114.986 137.586 83.2898C137.625 83.2646 137.646 83.243 137.671 83.2178C161.112 59.9315 191.992 47.1471 224.787 47.1471C258.116 47.1471 289.45 60.3419 313.022 84.3015C352.768 124.714 360.031 185.835 334.821 233.805C334.156 235.101 333.452 236.382 332.717 237.65C332.016 238.906 331.266 240.152 330.505 241.383C325.62 249.296 319.797 256.789 313.022 263.679C308.062 268.716 302.763 273.274 297.176 277.321C296.034 278.167 294.88 278.977 293.717 279.776C292.528 280.572 291.329 281.346 290.115 282.105C270.668 294.31 248.214 300.837 224.787 300.837C191.469 300.837 160.135 287.643 136.563 263.679C105.682 232.285 94.3899 188.384 102.771 147.853ZM171.021 228.649C193.454 251.449 226.4 257.023 253.977 245.372C255.357 244.803 256.712 244.184 258.056 243.522C259.362 242.881 260.646 242.193 261.919 241.48C267.888 238.071 273.495 233.794 278.561 228.649C285.513 221.578 290.837 213.471 294.548 204.83C295.142 203.415 295.701 201.989 296.211 200.553C296.745 199.066 297.233 197.565 297.686 196.056C305.363 169.749 298.991 140.109 278.561 119.335C248.865 89.151 200.713 89.151 171.021 119.335C141.332 149.52 141.332 198.461 171.021 228.649ZM180.318 164.493C181.149 163.334 182.126 162.318 183.23 161.483C185.455 159.759 188.151 158.754 191.076 158.754H209.809V139.723C209.809 135.853 211.485 132.354 214.195 129.823C215.349 128.75 216.679 127.843 218.154 127.166C219.566 126.5 221.112 126.053 222.742 125.848C223.408 125.765 224.097 125.719 224.787 125.719C226.273 125.719 227.709 125.924 229.064 126.295C234.307 127.745 238.337 131.807 239.455 136.858C239.667 137.79 239.773 138.741 239.773 139.72V158.754H258.509C259.461 158.754 260.388 158.862 261.29 159.067C261.29 159.067 261.29 159.067 261.3 159.067C263.989 159.672 266.377 161.159 268.241 163.222C269.833 164.99 271.036 167.186 271.701 169.641C272.069 171.02 272.271 172.482 272.271 173.99C272.271 174.692 272.225 175.391 272.14 176.071C271.938 177.724 271.5 179.297 270.845 180.734C268.599 185.774 263.929 189.23 258.505 189.23H239.773V208.272C239.773 211.235 238.786 213.989 237.099 216.25C236.278 217.362 235.27 218.363 234.141 219.209C232.984 220.07 231.689 220.783 230.288 221.29C228.587 221.917 226.733 222.266 224.784 222.266C216.513 222.266 209.809 216.009 209.809 208.275V189.23H191.073C183.467 189.23 177.307 182.404 177.307 173.994C177.307 172.021 177.643 170.138 178.273 168.41C178.772 166.981 179.462 165.667 180.318 164.493ZM178.273 168.41C178.772 166.981 179.462 165.667 180.318 164.493C181.149 163.334 182.126 162.318 183.23 161.483C185.455 159.759 188.151 158.754 191.076 158.754H209.809V139.723C209.809 135.853 211.485 132.354 214.195 129.823C215.349 128.75 216.679 127.843 218.154 127.166C219.566 126.5 221.112 126.053 222.742 125.848C223.408 125.765 224.097 125.719 224.787 125.719C226.273 125.719 227.709 125.924 229.064 126.295C234.307 127.745 238.337 131.807 239.455 136.858C239.667 137.79 239.773 138.741 239.773 139.72V158.754H258.509C259.461 158.754 260.388 158.862 261.29 159.067C261.29 159.067 261.29 159.067 261.3 159.067C263.989 159.672 266.377 161.159 268.241 163.222C269.833 164.99 271.036 167.186 271.701 169.641C272.069 171.02 272.271 172.482 272.271 173.99C272.271 174.692 272.225 175.391 272.14 176.071C271.938 177.724 271.5 179.297 270.845 180.734C268.599 185.774 263.929 189.23 258.505 189.23H239.773V208.272C239.773 211.235 238.786 213.989 237.099 216.25C236.278 217.362 235.27 218.363 234.141 219.209C232.984 220.07 231.689 220.783 230.288 221.29C228.587 221.917 226.733 222.266 224.784 222.266C216.513 222.266 209.809 216.009 209.809 208.275V189.23H191.073C183.467 189.23 177.307 182.404 177.307 173.994C177.311 172.021 177.643 170.138 178.273 168.41ZM178.273 168.41C178.772 166.981 179.462 165.667 180.318 164.493C181.149 163.334 182.126 162.318 183.23 161.483C185.455 159.759 188.151 158.754 191.076 158.754H209.809V139.723C209.809 135.853 211.485 132.354 214.195 129.823C215.349 128.75 216.679 127.843 218.154 127.166C219.566 126.5 221.112 126.053 222.742 125.848C223.408 125.765 224.097 125.719 224.787 125.719C226.273 125.719 227.709 125.924 229.064 126.295C234.307 127.745 238.337 131.807 239.455 136.858C239.667 137.79 239.773 138.741 239.773 139.72V158.754H258.509C259.461 158.754 260.388 158.862 261.29 159.067C261.29 159.067 261.29 159.067 261.3 159.067C263.989 159.672 266.377 161.159 268.241 163.222C269.833 164.99 271.036 167.186 271.701 169.641C272.069 171.02 272.271 172.482 272.271 173.99C272.271 174.692 272.225 175.391 272.14 176.071C271.938 177.724 271.5 179.297 270.845 180.734C268.599 185.774 263.929 189.23 258.505 189.23H239.773V208.272C239.773 211.235 238.786 213.989 237.099 216.25C236.278 217.362 235.27 218.363 234.141 219.209C232.984 220.07 231.689 220.783 230.288 221.29C228.587 221.917 226.733 222.266 224.784 222.266C216.513 222.266 209.809 216.009 209.809 208.275V189.23H191.073C183.467 189.23 177.307 182.404 177.307 173.994C177.311 172.021 177.643 170.138 178.273 168.41ZM178.273 168.41C178.772 166.981 179.462 165.667 180.318 164.493C181.149 163.334 182.126 162.318 183.23 161.483C185.455 159.759 188.151 158.754 191.076 158.754H209.809V139.723C209.809 135.853 211.485 132.354 214.195 129.823C215.349 128.75 216.679 127.843 218.154 127.166C219.566 126.5 221.112 126.053 222.742 125.848C223.408 125.765 224.097 125.719 224.787 125.719C226.273 125.719 227.709 125.924 229.064 126.295C234.307 127.745 238.337 131.807 239.455 136.858C239.667 137.79 239.773 138.741 239.773 139.72V158.754H258.509C259.461 158.754 260.388 158.862 261.29 159.067C261.29 159.067 261.29 159.067 261.3 159.067C263.989 159.672 266.377 161.159 268.241 163.222C269.833 164.99 271.036 167.186 271.701 169.641C272.069 171.02 272.271 172.482 272.271 173.99C272.271 174.692 272.225 175.391 272.14 176.071C271.938 177.724 271.5 179.297 270.845 180.734C268.599 185.774 263.929 189.23 258.505 189.23H239.773V208.272C239.773 211.235 238.786 213.989 237.099 216.25C236.278 217.362 235.27 218.363 234.141 219.209C232.984 220.07 231.689 220.783 230.288 221.29C228.587 221.917 226.733 222.266 224.784 222.266C216.513 222.266 209.809 216.009 209.809 208.275V189.23H191.073C183.467 189.23 177.307 182.404 177.307 173.994C177.311 172.021 177.643 170.138 178.273 168.41ZM178.273 168.41C178.772 166.981 179.462 165.667 180.318 164.493C181.149 163.334 182.126 162.318 183.23 161.483C185.455 159.759 188.151 158.754 191.076 158.754H209.809V139.723C209.809 135.853 211.485 132.354 214.195 129.823C215.349 128.75 216.679 127.843 218.154 127.166C219.566 126.5 221.112 126.053 222.742 125.848C223.408 125.765 224.097 125.719 224.787 125.719C226.273 125.719 227.709 125.924 229.064 126.295C234.307 127.745 238.337 131.807 239.455 136.858C239.667 137.79 239.773 138.741 239.773 139.72V158.754H258.509C259.461 158.754 260.388 158.862 261.29 159.067C261.29 159.067 261.29 159.067 261.3 159.067C263.989 159.672 266.377 161.159 268.241 163.222C269.833 164.99 271.036 167.186 271.701 169.641C272.069 171.02 272.271 172.482 272.271 173.99C272.271 174.692 272.225 175.391 272.14 176.071C271.938 177.724 271.5 179.297 270.845 180.734C268.599 185.774 263.929 189.23 258.505 189.23H239.773V208.272C239.773 211.235 238.786 213.989 237.099 216.25C236.278 217.362 235.27 218.363 234.141 219.209C232.984 220.07 231.689 220.783 230.288 221.29C228.587 221.917 226.733 222.266 224.784 222.266C216.513 222.266 209.809 216.009 209.809 208.275V189.23H191.073C183.467 189.23 177.307 182.404 177.307 173.994C177.311 172.021 177.643 170.138 178.273 168.41ZM178.273 168.41C178.772 166.981 179.462 165.667 180.318 164.493C181.149 163.334 182.126 162.318 183.23 161.483C185.455 159.759 188.151 158.754 191.076 158.754H209.809V139.723C209.809 135.853 211.485 132.354 214.195 129.823C215.349 128.75 216.679 127.843 218.154 127.166C219.566 126.5 221.112 126.053 222.742 125.848C223.408 125.765 224.097 125.719 224.787 125.719C226.273 125.719 227.709 125.924 229.064 126.295C234.307 127.745 238.337 131.807 239.455 136.858C239.667 137.79 239.773 138.741 239.773 139.72V158.754H258.509C259.461 158.754 260.388 158.862 261.29 159.067C261.29 159.067 261.29 159.067 261.3 159.067C263.989 159.672 266.377 161.159 268.241 163.222C269.833 164.99 271.036 167.186 271.701 169.641C272.069 171.02 272.271 172.482 272.271 173.99C272.271 174.692 272.225 175.391 272.14 176.071C271.938 177.724 271.5 179.297 270.845 180.734C268.599 185.774 263.929 189.23 258.505 189.23H239.773V208.272C239.773 211.235 238.786 213.989 237.099 216.25C236.278 217.362 235.27 218.363 234.141 219.209C232.984 220.07 231.689 220.783 230.288 221.29C228.587 221.917 226.733 222.266 224.784 222.266C216.513 222.266 209.809 216.009 209.809 208.275V189.23H191.073C183.467 189.23 177.307 182.404 177.307 173.994C177.311 172.021 177.643 170.138 178.273 168.41ZM178.273 168.41C178.772 166.981 179.462 165.667 180.318 164.493C181.149 163.334 182.126 162.318 183.23 161.483C185.455 159.759 188.151 158.754 191.076 158.754H209.809V139.723C209.809 135.853 211.485 132.354 214.195 129.823C215.349 128.75 216.679 127.843 218.154 127.166C219.566 126.5 221.112 126.053 222.742 125.848C223.408 125.765 224.097 125.719 224.787 125.719C226.273 125.719 227.709 125.924 229.064 126.295C234.307 127.745 238.337 131.807 239.455 136.858C239.667 137.79 239.773 138.741 239.773 139.72V158.754H258.509C259.461 158.754 260.388 158.862 261.29 159.067C261.29 159.067 261.29 159.067 261.3 159.067C263.989 159.672 266.377 161.159 268.241 163.222C269.833 164.99 271.036 167.186 271.701 169.641C272.069 171.02 272.271 172.482 272.271 173.99C272.271 174.692 272.225 175.391 272.14 176.071C271.938 177.724 271.5 179.297 270.845 180.734C268.599 185.774 263.929 189.23 258.505 189.23H239.773V208.272C239.773 211.235 238.786 213.989 237.099 216.25C236.278 217.362 235.27 218.363 234.141 219.209C232.984 220.07 231.689 220.783 230.288 221.29C228.587 221.917 226.733 222.266 224.784 222.266C216.513 222.266 209.809 216.009 209.809 208.275V189.23H191.073C183.467 189.23 177.307 182.404 177.307 173.994C177.311 172.021 177.643 170.138 178.273 168.41ZM178.273 168.41C178.772 166.981 179.462 165.667 180.318 164.493C181.149 163.334 182.126 162.318 183.23 161.483C185.455 159.759 188.151 158.754 191.076 158.754H209.809V139.723C209.809 135.853 211.485 132.354 214.195 129.823C215.349 128.75 216.679 127.843 218.154 127.166C219.566 126.5 221.112 126.053 222.742 125.848C223.408 125.765 224.097 125.719 224.787 125.719C226.273 125.719 227.709 125.924 229.064 126.295C234.307 127.745 238.337 131.807 239.455 136.858C239.667 137.79 239.773 138.741 239.773 139.72V158.754H258.509C259.461 158.754 260.388 158.862 261.29 159.067C261.29 159.067 261.29 159.067 261.3 159.067C263.989 159.672 266.377 161.159 268.241 163.222C269.833 164.99 271.036 167.186 271.701 169.641C272.069 171.02 272.271 172.482 272.271 173.99C272.271 174.692 272.225 175.391 272.14 176.071C271.938 177.724 271.5 179.297 270.845 180.734C268.599 185.774 263.929 189.23 258.505 189.23H239.773V208.272C239.773 211.235 238.786 213.989 237.099 216.25C236.278 217.362 235.27 218.363 234.141 219.209C232.984 220.07 231.689 220.783 230.288 221.29C228.587 221.917 226.733 222.266 224.784 222.266C216.513 222.266 209.809 216.009 209.809 208.275V189.23H191.073C183.467 189.23 177.307 182.404 177.307 173.994C177.311 172.021 177.643 170.138 178.273 168.41ZM178.273 168.41C178.772 166.981 179.462 165.667 180.318 164.493C181.149 163.334 182.126 162.318 183.23 161.483C185.455 159.759 188.151 158.754 191.076 158.754H209.809V139.723C209.809 135.853 211.485 132.354 214.195 129.823C215.349 128.75 216.679 127.843 218.154 127.166C219.566 126.5 221.112 126.053 222.742 125.848C223.408 125.765 224.097 125.719 224.787 125.719C226.273 125.719 227.709 125.924 229.064 126.295C234.307 127.745 238.337 131.807 239.455 136.858C239.667 137.79 239.773 138.741 239.773 139.72V158.754H258.509C259.461 158.754 260.388 158.862 261.29 159.067C261.29 159.067 261.29 159.067 261.3 159.067C263.989 159.672 266.377 161.159 268.241 163.222C269.833 164.99 271.036 167.186 271.701 169.641C272.069 171.02 272.271 172.482 272.271 173.99C272.271 174.692 272.225 175.391 272.14 176.071C271.938 177.724 271.5 179.297 270.845 180.734C268.599 185.774 263.929 189.23 258.505 189.23H239.773V208.272C239.773 211.235 238.786 213.989 237.099 216.25C236.278 217.362 235.27 218.363 234.141 219.209C232.984 220.07 231.689 220.783 230.288 221.29C228.587 221.917 226.733 222.266 224.784 222.266C216.513 222.266 209.809 216.009 209.809 208.275V189.23H191.073C183.467 189.23 177.307 182.404 177.307 173.994C177.311 172.021 177.643 170.138 178.273 168.41ZM178.273 168.41C178.772 166.981 179.462 165.667 180.318 164.493C181.149 163.334 182.126 162.318 183.23 161.483C185.455 159.759 188.151 158.754 191.076 158.754H209.809V139.723C209.809 135.853 211.485 132.354 214.195 129.823C215.349 128.75 216.679 127.843 218.154 127.166C219.566 126.5 221.112 126.053 222.742 125.848C223.408 125.765 224.097 125.719 224.787 125.719C226.273 125.719 227.709 125.924 229.064 126.295C234.307 127.745 238.337 131.807 239.455 136.858C239.667 137.79 239.773 138.741 239.773 139.72V158.754H258.509C259.461 158.754 260.388 158.862 261.29 159.067C261.29 159.067 261.29 159.067 261.3 159.067C263.989 159.672 266.377 161.159 268.241 163.222C269.833 164.99 271.036 167.186 271.701 169.641C272.069 171.02 272.271 172.482 272.271 173.99C272.271 174.692 272.225 175.391 272.14 176.071C271.938 177.724 271.5 179.297 270.845 180.734C268.599 185.774 263.929 189.23 258.505 189.23H239.773V208.272C239.773 211.235 238.786 213.989 237.099 216.25C236.278 217.362 235.27 218.363 234.141 219.209C232.984 220.07 231.689 220.783 230.288 221.29C228.587 221.917 226.733 222.266 224.784 222.266C216.513 222.266 209.809 216.009 209.809 208.275V189.23H191.073C183.467 189.23 177.307 182.404 177.307 173.994C177.311 172.021 177.643 170.138 178.273 168.41ZM178.273 168.41C178.772 166.981 179.462 165.667 180.318 164.493C181.149 163.334 182.126 162.318 183.23 161.483C185.455 159.759 188.151 158.754 191.076 158.754H209.809V139.723C209.809 135.853 211.485 132.354 214.195 129.823C215.349 128.75 216.679 127.843 218.154 127.166C219.566 126.5 221.112 126.053 222.742 125.848C223.408 125.765 224.097 125.719 224.787 125.719C226.273 125.719 227.709 125.924 229.064 126.295C234.307 127.745 238.337 131.807 239.455 136.858C239.667 137.79 239.773 138.741 239.773 139.72V158.754H258.509C259.461 158.754 260.388 158.862 261.29 159.067C261.29 159.067 261.29 159.067 261.3 159.067C263.989 159.672 266.377 161.159 268.241 163.222C269.833 164.99 271.036 167.186 271.701 169.641C272.069 171.02 272.271 172.482 272.271 173.99C272.271 174.692 272.225 175.391 272.14 176.071C271.938 177.724 271.5 179.297 270.845 180.734C268.599 185.774 263.929 189.23 258.505 189.23H239.773V208.272C239.773 211.235 238.786 213.989 237.099 216.25C236.278 217.362 235.27 218.363 234.141 219.209C232.984 220.07 231.689 220.783 230.288 221.29C228.587 221.917 226.733 222.266 224.784 222.266C216.513 222.266 209.809 216.009 209.809 208.275V189.23H191.073C183.467 189.23 177.307 182.404 177.307 173.994C177.311 172.021 177.643 170.138 178.273 168.41ZM178.273 168.41C178.772 166.981 179.462 165.667 180.318 164.493C181.149 163.334 182.126 162.318 183.23 161.483C185.455 159.759 188.151 158.754 191.076 158.754H209.809V139.723C209.809 135.853 211.485 132.354 214.195 129.823C215.349 128.75 216.679 127.843 218.154 127.166C219.566 126.5 221.112 126.053 222.742 125.848C223.408 125.765 224.097 125.719 224.787 125.719C226.273 125.719 227.709 125.924 229.064 126.295C234.307 127.745 238.337 131.807 239.455 136.858C239.667 137.79 239.773 138.741 239.773 139.72V158.754H258.509C259.461 158.754 260.388 158.862 261.29 159.067C261.29 159.067 261.29 159.067 261.3 159.067C263.989 159.672 266.377 161.159 268.241 163.222C269.833 164.99 271.036 167.186 271.701 169.641C272.069 171.02 272.271 172.482 272.271 173.99C272.271 174.692 272.225 175.391 272.14 176.071C271.938 177.724 271.5 179.297 270.845 180.734C268.599 185.774 263.929 189.23 258.505 189.23H239.773V208.272C239.773 211.235 238.786 213.989 237.099 216.25C236.278 217.362 235.27 218.363 234.141 219.209C232.984 220.07 231.689 220.783 230.288 221.29C228.587 221.917 226.733 222.266 224.784 222.266C216.513 222.266 209.809 216.009 209.809 208.275V189.23H191.073C183.467 189.23 177.307 182.404 177.307 173.994C177.311 172.021 177.643 170.138 178.273 168.41ZM178.273 168.41C178.772 166.981 179.462 165.667 180.318 164.493C181.149 163.334 182.126 162.318 183.23 161.483C185.455 159.759 188.151 158.754 191.076 158.754H209.809V139.723C209.809 135.853 211.485 132.354 214.195 129.823C215.349 128.75 216.679 127.843 218.154 127.166C219.566 126.5 221.112 126.053 222.742 125.848C223.408 125.765 224.097 125.719 224.787 125.719C226.273 125.719 227.709 125.924 229.064 126.295C234.307 127.745 238.337 131.807 239.455 136.858C239.667 137.79 239.773 138.741 239.773 139.72V158.754H258.509C259.461 158.754 260.388 158.862 261.29 159.067C261.29 159.067 261.29 159.067 261.3 159.067C263.989 159.672 266.377 161.159 268.241 163.222C269.833 164.99 271.036 167.186 271.701 169.641C272.069 171.02 272.271 172.482 272.271 173.99C272.271 174.692 272.225 175.391 272.14 176.071C271.938 177.724 271.5 179.297 270.845 180.734C268.599 185.774 263.929 189.23 258.505 189.23H239.773V208.272C239.773 211.235 238.786 213.989 237.099 216.25C236.278 217.362 235.27 218.363 234.141 219.209C232.984 220.07 231.689 220.783 230.288 221.29C228.587 221.917 226.733 222.266 224.784 222.266C216.513 222.266 209.809 216.009 209.809 208.275V189.23H191.073C183.467 189.23 177.307 182.404 177.307 173.994C177.311 172.021 177.643 170.138 178.273 168.41ZM258.509 158.754C259.461 158.754 260.388 158.862 261.29 159.067C261.29 159.067 261.29 159.067 261.3 159.067C263.989 159.672 266.377 161.159 268.241 163.226C269.833 164.99 271.036 167.186 271.701 169.641C272.069 171.02 272.271 172.482 272.271 173.99C272.271 174.692 272.225 175.391 272.14 176.071C271.938 177.724 271.5 179.297 270.845 180.734C268.599 185.774 263.929 189.23 258.505 189.23H239.773V158.754H258.509ZM214.195 129.823C215.349 128.75 216.679 127.843 218.154 127.166C219.566 126.5 221.112 126.053 222.742 125.848C223.408 125.765 224.097 125.719 224.787 125.719C226.273 125.719 227.709 125.924 229.064 126.295C234.307 127.745 238.337 131.807 239.455 136.858C239.667 137.79 239.773 138.741 239.773 139.72V158.754H209.809V139.72C209.809 135.853 211.485 132.35 214.195 129.823ZM191.076 158.754H209.809V188.503L183.23 161.483C185.455 159.759 188.151 158.754 191.076 158.754ZM178.273 168.41L198.753 189.23H191.076C183.467 189.23 177.311 182.404 177.311 173.99C177.311 172.021 177.643 170.138 178.273 168.41ZM258.509 158.754C259.461 158.754 260.388 158.862 261.29 159.067C261.29 159.067 261.29 159.067 261.3 159.067C263.989 159.672 266.377 161.159 268.241 163.226C269.833 164.99 271.036 167.186 271.701 169.641C272.069 171.02 272.271 172.482 272.271 173.99C272.271 174.692 272.225 175.391 272.14 176.071C271.938 177.724 271.5 179.297 270.845 180.734C268.599 185.774 263.929 189.23 258.505 189.23H239.773V158.754H258.509ZM178.273 168.41L198.753 189.23H191.076C183.467 189.23 177.311 182.404 177.311 173.99C177.311 172.021 177.643 170.138 178.273 168.41ZM222.742 125.848C223.408 125.765 224.097 125.719 224.787 125.719C226.273 125.719 227.709 125.924 229.064 126.295C234.307 127.745 238.337 131.807 239.455 136.858C239.667 137.79 239.773 138.741 239.773 139.72V149.145L218.154 127.166C219.566 126.5 221.112 126.053 222.742 125.848Z" fill="#1F555F"/>
</g>
<path d="M177.31 173.99C177.31 182.404 183.466 189.23 191.075 189.23H209.808V208.272C209.808 216.005 216.512 222.266 224.786 222.266C226.736 222.266 228.59 221.916 230.288 221.286C231.692 220.779 232.987 220.07 234.14 219.209C235.269 218.363 236.281 217.362 237.098 216.25C238.789 213.989 239.772 211.235 239.772 208.272V189.226H258.508C263.928 189.226 268.598 185.774 270.844 180.733C271.499 179.297 271.941 177.724 272.143 176.068C272.224 175.391 272.273 174.692 272.273 173.99C272.273 172.478 272.068 171.016 271.704 169.641C271.035 167.186 269.836 164.99 268.244 163.222C266.376 161.155 263.988 159.672 261.303 159.067C261.289 159.067 261.289 159.067 261.289 159.067C260.387 158.862 259.46 158.75 258.508 158.75H239.776V139.72C239.776 138.74 239.67 137.786 239.454 136.854C238.336 131.806 234.306 127.745 229.067 126.294C227.712 125.92 226.272 125.715 224.786 125.715C224.097 125.715 223.407 125.762 222.742 125.848C221.111 126.053 219.568 126.5 218.153 127.166C216.678 127.842 215.348 128.75 214.194 129.823C211.485 132.35 209.808 135.853 209.808 139.72V158.754H191.075C188.153 158.754 185.454 159.759 183.232 161.483C182.125 162.318 181.152 163.33 180.317 164.493C179.461 165.663 178.775 166.981 178.272 168.406C177.643 170.138 177.31 172.021 177.31 173.99Z" fill="white"/>
<path d="M177.31 173.991C177.31 182.405 183.466 189.231 191.075 189.231H258.508C263.928 189.231 268.598 185.775 270.844 180.734C271.499 179.298 271.941 177.725 272.143 176.072C272.224 175.392 272.273 174.693 272.273 173.991C272.273 172.483 272.068 171.021 271.704 169.642C271.035 167.187 269.836 164.991 268.244 163.223C266.376 161.16 263.988 159.673 261.303 159.068C261.289 159.068 261.289 159.068 261.289 159.068C260.387 158.863 259.46 158.755 258.508 158.755H191.075C188.153 158.755 185.454 159.759 183.232 161.484C182.125 162.319 181.152 163.331 180.317 164.494C179.461 165.664 178.775 166.982 178.272 168.407C177.643 170.139 177.31 172.022 177.31 173.991Z" fill="#1F555F"/>
<path d="M209.808 139.724V208.272C209.808 216.006 216.512 222.266 224.786 222.266C226.736 222.266 228.589 221.917 230.288 221.291C231.692 220.78 232.987 220.07 234.14 219.21C235.269 218.364 236.28 217.363 237.098 216.251C238.789 213.99 239.772 211.235 239.772 208.272V139.72C239.772 138.741 239.666 137.787 239.454 136.858C238.336 131.807 234.306 127.746 229.064 126.295C227.709 125.924 226.272 125.719 224.786 125.719C224.097 125.719 223.407 125.766 222.742 125.849C221.111 126.054 219.565 126.5 218.153 127.166C216.678 127.843 215.344 128.751 214.194 129.823C211.485 132.351 209.808 135.854 209.808 139.724Z" fill="#1F555F"/>
<mask id="mask2_128_81" style="mask-type:luminance" maskUnits="userSpaceOnUse" x="165" y="113" width="119" height="121">
<path d="M165.837 113.737H283.754V233.737H165.837V113.737Z" fill="white"/>
</mask>
<g mask="url(#mask2_128_81)">
<path d="M283.76 173.74C283.76 174.722 283.735 175.703 283.689 176.683C283.641 177.665 283.57 178.644 283.476 179.621C283.38 180.599 283.263 181.572 283.121 182.544C282.979 183.515 282.814 184.482 282.626 185.446C282.439 186.408 282.227 187.367 281.992 188.319C281.758 189.272 281.501 190.218 281.22 191.157C280.94 192.097 280.637 193.029 280.312 193.954C279.988 194.879 279.641 195.794 279.271 196.701C278.901 197.608 278.511 198.507 278.099 199.394C277.685 200.282 277.253 201.158 276.797 202.025C276.342 202.89 275.867 203.744 275.371 204.587C274.875 205.429 274.359 206.258 273.823 207.075C273.287 207.892 272.731 208.694 272.156 209.483C271.582 210.272 270.988 211.046 270.375 211.804C269.764 212.564 269.133 213.307 268.485 214.035C267.837 214.762 267.172 215.474 266.49 216.168C265.808 216.862 265.109 217.539 264.394 218.199C263.68 218.858 262.948 219.499 262.203 220.122C261.457 220.746 260.696 221.349 259.921 221.935C259.146 222.519 258.357 223.085 257.555 223.63C256.754 224.175 255.937 224.7 255.11 225.205C254.283 225.71 253.444 226.194 252.592 226.657C251.742 227.119 250.88 227.561 250.007 227.98C249.135 228.401 248.254 228.799 247.361 229.175C246.47 229.55 245.571 229.904 244.662 230.235C243.753 230.565 242.837 230.874 241.914 231.158C240.99 231.443 240.061 231.705 239.125 231.944C238.188 232.182 237.248 232.397 236.301 232.589C235.355 232.78 234.404 232.949 233.45 233.093C232.496 233.236 231.538 233.357 230.577 233.453C229.618 233.55 228.655 233.622 227.692 233.669C226.728 233.718 225.764 233.742 224.799 233.742C223.834 233.742 222.869 233.718 221.905 233.669C220.942 233.622 219.98 233.55 219.019 233.453C218.059 233.357 217.101 233.236 216.147 233.093C215.193 232.949 214.242 232.78 213.296 232.589C212.349 232.397 211.409 232.182 210.473 231.944C209.536 231.705 208.607 231.443 207.683 231.158C206.76 230.874 205.843 230.565 204.936 230.235C204.027 229.904 203.127 229.55 202.235 229.175C201.344 228.799 200.462 228.401 199.59 227.98C198.718 227.561 197.855 227.119 197.005 226.657C196.153 226.194 195.314 225.71 194.487 225.205C193.658 224.7 192.844 224.175 192.041 223.63C191.24 223.085 190.451 222.519 189.676 221.935C188.901 221.349 188.141 220.746 187.394 220.122C186.649 219.499 185.917 218.858 185.202 218.199C184.488 217.539 183.79 216.862 183.107 216.168C182.425 215.474 181.759 214.762 181.112 214.035C180.464 213.307 179.833 212.564 179.222 211.804C178.609 211.046 178.015 210.272 177.441 209.483C176.866 208.694 176.311 207.892 175.774 207.075C175.238 206.258 174.722 205.429 174.227 204.587C173.73 203.744 173.255 202.89 172.799 202.025C172.345 201.158 171.911 200.282 171.499 199.394C171.086 198.507 170.695 197.608 170.326 196.701C169.956 195.794 169.61 194.879 169.285 193.954C168.959 193.029 168.657 192.097 168.377 191.157C168.096 190.218 167.84 189.272 167.605 188.319C167.37 187.367 167.159 186.408 166.97 185.446C166.782 184.482 166.618 183.515 166.476 182.544C166.334 181.572 166.217 180.599 166.121 179.621C166.027 178.644 165.956 177.665 165.908 176.683C165.862 175.703 165.837 174.722 165.837 173.74C165.837 172.758 165.862 171.776 165.908 170.796C165.956 169.815 166.027 168.836 166.121 167.858C166.217 166.882 166.334 165.907 166.476 164.936C166.618 163.964 166.782 162.997 166.97 162.033C167.159 161.071 167.37 160.112 167.605 159.161C167.84 158.208 168.096 157.261 168.377 156.322C168.657 155.382 168.959 154.45 169.285 153.525C169.61 152.601 169.956 151.685 170.326 150.778C170.695 149.871 171.086 148.974 171.499 148.086C171.911 147.197 172.345 146.321 172.799 145.455C173.255 144.589 173.73 143.735 174.227 142.893C174.722 142.05 175.238 141.221 175.774 140.404C176.311 139.587 176.866 138.785 177.441 137.996C178.015 137.208 178.609 136.433 179.222 135.675C179.833 134.915 180.464 134.172 181.112 133.444C181.759 132.717 182.425 132.005 183.107 131.311C183.79 130.618 184.488 129.94 185.202 129.28C185.917 128.622 186.649 127.98 187.394 127.357C188.141 126.735 188.901 126.13 189.676 125.546C190.451 124.961 191.24 124.396 192.041 123.85C192.844 123.304 193.658 122.779 194.487 122.274C195.314 121.769 196.153 121.285 197.005 120.822C197.855 120.36 198.718 119.918 199.59 119.499C200.462 119.079 201.344 118.68 202.235 118.305C203.127 117.929 204.027 117.576 204.936 117.244C205.843 116.914 206.76 116.605 207.683 116.321C208.607 116.036 209.536 115.774 210.473 115.536C211.409 115.297 212.349 115.082 213.296 114.89C214.242 114.699 215.193 114.53 216.147 114.387C217.101 114.243 218.059 114.122 219.019 114.026C219.98 113.93 220.942 113.858 221.905 113.81C222.869 113.761 223.834 113.737 224.799 113.737C225.764 113.737 226.728 113.761 227.692 113.81C228.655 113.858 229.618 113.93 230.577 114.026C231.538 114.122 232.496 114.243 233.45 114.387C234.404 114.53 235.355 114.699 236.301 114.89C237.248 115.082 238.188 115.297 239.125 115.536C240.061 115.774 240.99 116.036 241.914 116.321C242.837 116.605 243.753 116.914 244.662 117.244C245.571 117.576 246.47 117.929 247.361 118.305C248.254 118.68 249.135 119.079 250.007 119.499C250.88 119.918 251.742 120.36 252.592 120.822C253.444 121.285 254.283 121.769 255.11 122.274C255.937 122.779 256.754 123.304 257.555 123.85C258.357 124.396 259.146 124.961 259.921 125.546C260.696 126.13 261.457 126.735 262.203 127.357C262.948 127.98 263.68 128.622 264.394 129.28C265.109 129.94 265.808 130.618 266.49 131.311C267.172 132.005 267.837 132.717 268.485 133.444C269.133 134.172 269.764 134.915 270.375 135.675C270.988 136.433 271.582 137.208 272.156 137.996C272.731 138.785 273.287 139.587 273.823 140.404C274.359 141.221 274.875 142.05 275.371 142.893C275.867 143.735 276.342 144.589 276.797 145.455C277.253 146.321 277.685 147.197 278.099 148.086C278.511 148.974 278.901 149.871 279.271 150.778C279.641 151.685 279.988 152.601 280.312 153.525C280.637 154.45 280.94 155.382 281.22 156.322C281.501 157.261 281.758 158.208 281.992 159.161C282.227 160.112 282.439 161.071 282.626 162.033C282.814 162.997 282.979 163.964 283.121 164.936C283.263 165.907 283.38 166.882 283.476 167.858C283.57 168.836 283.641 169.815 283.689 170.796C283.735 171.776 283.76 172.758 283.76 173.74Z" fill="#1F555F"/>
</g>
<path d="M277.929 173.74C277.929 174.625 277.907 175.51 277.865 176.393C277.823 177.276 277.759 178.16 277.673 179.04C277.588 179.921 277.482 180.799 277.355 181.674C277.226 182.549 277.078 183.421 276.908 184.289C276.739 185.157 276.548 186.019 276.337 186.878C276.125 187.736 275.894 188.589 275.642 189.436C275.389 190.282 275.116 191.122 274.823 191.956C274.531 192.789 274.217 193.614 273.885 194.432C273.552 195.249 273.2 196.058 272.828 196.858C272.456 197.658 272.065 198.449 271.655 199.228C271.246 200.008 270.817 200.778 270.37 201.537C269.923 202.296 269.458 203.044 268.975 203.779C268.492 204.515 267.991 205.239 267.474 205.95C266.955 206.66 266.42 207.357 265.869 208.042C265.317 208.725 264.75 209.396 264.165 210.051C263.581 210.707 262.982 211.347 262.368 211.974C261.752 212.599 261.123 213.208 260.479 213.803C259.835 214.397 259.176 214.975 258.504 215.536C257.831 216.097 257.146 216.642 256.449 217.169C255.75 217.696 255.039 218.206 254.316 218.697C253.594 219.189 252.858 219.662 252.113 220.117C251.367 220.572 250.61 221.008 249.843 221.425C249.078 221.842 248.301 222.24 247.515 222.618C246.729 222.997 245.933 223.356 245.131 223.694C244.327 224.032 243.516 224.351 242.697 224.649C241.879 224.947 241.053 225.225 240.222 225.482C239.389 225.739 238.551 225.974 237.708 226.189C236.864 226.404 236.017 226.599 235.164 226.771C234.311 226.943 233.454 227.094 232.594 227.225C231.734 227.354 230.872 227.462 230.006 227.549C229.141 227.636 228.273 227.701 227.405 227.744C226.537 227.787 225.668 227.81 224.798 227.81C223.929 227.81 223.06 227.787 222.192 227.744C221.322 227.701 220.456 227.636 219.59 227.549C218.725 227.462 217.863 227.354 217.003 227.225C216.142 227.094 215.286 226.943 214.433 226.771C213.58 226.599 212.732 226.404 211.889 226.189C211.045 225.974 210.207 225.739 209.375 225.482C208.542 225.225 207.718 224.947 206.899 224.649C206.08 224.351 205.27 224.032 204.466 223.694C203.662 223.356 202.868 222.997 202.082 222.618C201.295 222.24 200.519 221.842 199.752 221.425C198.986 221.008 198.229 220.572 197.484 220.117C196.737 219.662 196.003 219.189 195.281 218.697C194.558 218.206 193.847 217.696 193.148 217.169C192.45 216.642 191.764 216.097 191.092 215.536C190.42 214.975 189.762 214.397 189.118 213.803C188.473 213.208 187.844 212.599 187.229 211.974C186.615 211.347 186.015 210.707 185.431 210.051C184.847 209.396 184.279 208.725 183.728 208.042C183.175 207.357 182.642 206.66 182.123 205.95C181.606 205.239 181.105 204.515 180.622 203.779C180.139 203.044 179.673 202.296 179.227 201.537C178.779 200.778 178.351 200.008 177.941 199.228C177.531 198.449 177.14 197.658 176.769 196.858C176.396 196.058 176.044 195.249 175.711 194.432C175.378 193.614 175.066 192.789 174.774 191.956C174.48 191.122 174.207 190.282 173.955 189.436C173.702 188.589 173.47 187.736 173.26 186.878C173.049 186.019 172.858 185.157 172.688 184.289C172.519 183.421 172.37 182.549 172.242 181.674C172.115 180.799 172.009 179.921 171.923 179.04C171.838 178.16 171.774 177.276 171.732 176.393C171.689 175.51 171.667 174.625 171.667 173.74C171.667 172.856 171.689 171.971 171.732 171.087C171.774 170.203 171.838 169.321 171.923 168.44C172.009 167.56 172.115 166.682 172.242 165.807C172.37 164.931 172.519 164.06 172.688 163.192C172.858 162.324 173.049 161.461 173.26 160.603C173.47 159.744 173.702 158.892 173.955 158.044C174.207 157.197 174.48 156.358 174.774 155.525C175.066 154.692 175.378 153.867 175.711 153.049C176.044 152.231 176.396 151.422 176.769 150.622C177.14 149.822 177.531 149.032 177.941 148.251C178.351 147.472 178.779 146.701 179.227 145.943C179.673 145.183 180.139 144.436 180.622 143.701C181.105 142.965 181.606 142.242 182.123 141.531C182.642 140.821 183.175 140.122 183.728 139.439C184.279 138.754 184.847 138.085 185.431 137.429C186.015 136.774 186.615 136.133 187.229 135.507C187.844 134.882 188.473 134.272 189.118 133.678C189.762 133.083 190.42 132.506 191.092 131.944C191.764 131.382 192.45 130.839 193.148 130.311C193.847 129.785 194.558 129.275 195.281 128.783C196.003 128.292 196.737 127.818 197.484 127.364C198.229 126.908 198.986 126.472 199.752 126.055C200.519 125.637 201.295 125.24 202.082 124.862C202.868 124.483 203.662 124.125 204.466 123.786C205.27 123.447 206.08 123.129 206.899 122.832C207.718 122.533 208.542 122.255 209.375 121.999C210.207 121.742 211.045 121.505 211.889 121.292C212.732 121.076 213.58 120.882 214.433 120.71C215.286 120.537 216.142 120.386 217.003 120.255C217.863 120.126 218.725 120.018 219.59 119.93C220.456 119.844 221.322 119.779 222.192 119.736C223.06 119.693 223.929 119.671 224.798 119.671C225.668 119.671 226.537 119.693 227.405 119.736C228.273 119.779 229.141 119.844 230.006 119.93C230.872 120.018 231.734 120.126 232.594 120.255C233.454 120.386 234.311 120.537 235.164 120.71C236.017 120.882 236.864 121.076 237.708 121.292C238.551 121.505 239.389 121.742 240.222 121.999C241.053 122.255 241.879 122.533 242.697 122.832C243.516 123.129 244.327 123.447 245.131 123.786C245.933 124.125 246.729 124.483 247.515 124.862C248.301 125.24 249.078 125.637 249.843 126.055C250.61 126.472 251.367 126.908 252.113 127.364C252.858 127.818 253.594 128.292 254.316 128.783C255.039 129.275 255.75 129.785 256.449 130.311C257.146 130.839 257.831 131.382 258.504 131.944C259.176 132.506 259.835 133.083 260.479 133.678C261.123 134.272 261.752 134.882 262.368 135.507C262.982 136.133 263.581 136.774 264.165 137.429C264.75 138.085 265.317 138.754 265.869 139.439C266.42 140.122 266.955 140.821 267.474 141.531C267.991 142.242 268.492 142.965 268.975 143.701C269.458 144.436 269.923 145.183 270.37 145.943C270.817 146.701 271.246 147.472 271.655 148.251C272.065 149.032 272.456 149.822 272.828 150.622C273.2 151.422 273.552 152.231 273.885 153.049C274.217 153.867 274.531 154.692 274.823 155.525C275.116 156.358 275.389 157.197 275.642 158.044C275.894 158.892 276.125 159.744 276.337 160.603C276.548 161.461 276.739 162.324 276.908 163.192C277.078 164.06 277.226 164.931 277.355 165.807C277.482 166.682 277.588 167.56 277.673 168.44C277.759 169.321 277.823 170.203 277.865 171.087C277.907 171.971 277.929 172.856 277.929 173.74Z" fill="white"/>
<path fill-rule="evenodd" clip-rule="evenodd" d="M197.045 159.622L175.998 171.889C175.976 172.503 175.961 173.12 175.961 173.74C175.961 190.683 184.294 205.645 197.017 214.615L197.045 159.622ZM250.679 156.325L250.749 131.633C243.23 126.825 234.334 124.04 224.798 124.04C217.308 124.04 210.213 125.758 203.869 128.825L250.679 156.325ZM198.917 191.154L198.847 215.846C206.365 220.654 215.261 223.439 224.798 223.439C232.288 223.439 239.382 221.721 245.726 218.654L198.917 191.154ZM222.894 142.224L176.117 169.761C177.468 152.425 187.557 137.595 201.905 129.832L222.894 142.224ZM226.702 205.256L273.479 177.72C272.129 195.056 262.038 209.885 247.691 217.649L226.702 205.256ZM252.55 187.858L273.597 175.59C273.619 174.977 273.635 174.36 273.635 173.74C273.635 156.796 265.301 141.836 252.58 132.864L252.55 187.858Z" fill="#1F555F"/>
<path fill-rule="evenodd" clip-rule="evenodd" d="M218.139 150.442C230.778 146.702 244.014 154.096 247.689 166.964C251.37 179.828 244.099 193.292 231.454 197.038C218.809 200.778 205.579 193.384 201.904 180.515C198.229 167.647 205.495 154.183 218.139 150.442Z" fill="#1F555F"/>
<path fill-rule="evenodd" clip-rule="evenodd" d="M208.635 168.678C208.585 169.811 207.661 170.71 206.536 170.703C205.388 170.694 204.363 169.694 204.468 168.499C204.934 163.147 209.062 158.269 213.652 155.914C214.703 155.375 215.978 155.917 216.439 156.994C216.892 158.058 216.397 159.253 215.399 159.768C212.399 161.314 209.297 165.293 208.635 168.678Z" fill="white"/>
<path d="M222.51 154.739C222.51 154.88 222.496 155.019 222.469 155.158C222.442 155.297 222.402 155.43 222.349 155.561C222.296 155.692 222.23 155.815 222.154 155.933C222.077 156.05 221.989 156.16 221.892 156.258C221.794 156.358 221.687 156.447 221.571 156.526C221.457 156.604 221.334 156.671 221.205 156.725C221.078 156.779 220.946 156.819 220.81 156.847C220.674 156.875 220.537 156.889 220.397 156.889C220.26 156.889 220.122 156.875 219.985 156.847C219.85 156.819 219.718 156.779 219.589 156.725C219.461 156.671 219.34 156.604 219.225 156.526C219.109 156.447 219.003 156.358 218.904 156.258C218.806 156.16 218.719 156.05 218.642 155.933C218.565 155.815 218.499 155.692 218.447 155.561C218.394 155.43 218.353 155.297 218.326 155.158C218.3 155.019 218.286 154.88 218.286 154.739C218.286 154.597 218.3 154.458 218.326 154.319C218.353 154.182 218.394 154.047 218.447 153.917C218.499 153.786 218.565 153.662 218.642 153.544C218.719 153.428 218.806 153.319 218.904 153.219C219.003 153.119 219.109 153.03 219.225 152.951C219.34 152.874 219.461 152.807 219.589 152.753C219.718 152.699 219.85 152.658 219.985 152.63C220.122 152.603 220.26 152.59 220.397 152.59C220.537 152.59 220.674 152.603 220.81 152.63C220.946 152.658 221.078 152.699 221.205 152.753C221.334 152.807 221.457 152.874 221.571 152.951C221.687 153.03 221.794 153.119 221.892 153.219C221.989 153.319 222.077 153.428 222.154 153.544C222.23 153.662 222.296 153.786 222.349 153.917C222.402 154.047 222.442 154.182 222.469 154.319C222.496 154.458 222.51 154.597 222.51 154.739Z" fill="white"/>
<path d="M88.1875 382.25V372.938H99.375V382.25H88.1875ZM88.1875 432V385.125H99.375V432H88.1875ZM123.2 432V377H138.325C142.283 377 145.263 378.104 147.263 380.313C149.263 382.5 150.263 385.709 150.263 389.938V415.688C150.263 420.896 149.346 424.917 147.513 427.75C145.7 430.584 142.513 432 137.95 432H123.2ZM134.263 422.281H136.169C138.19 422.281 139.2 421.302 139.2 419.344V390.969C139.2 389.136 138.95 387.959 138.45 387.438C137.971 386.896 136.981 386.625 135.481 386.625H134.263V422.281ZM186.9 432.5C183.567 432.5 180.91 431.875 178.931 430.625C176.952 429.375 175.535 427.573 174.681 425.219C173.827 422.865 173.4 420.031 173.4 416.719V397.875C173.4 393.521 174.65 390.229 177.15 388C179.65 385.75 183.088 384.625 187.463 384.625C196.463 384.625 200.963 389.042 200.963 397.875V401.281C200.963 405.406 200.921 408.177 200.838 409.594H184.588V418.656C184.588 419.49 184.64 420.313 184.744 421.125C184.848 421.917 185.077 422.573 185.431 423.094C185.806 423.615 186.4 423.875 187.213 423.875C188.379 423.875 189.108 423.375 189.4 422.375C189.692 421.354 189.838 420.031 189.838 418.406V413.906H200.963V416.563C200.963 420.063 200.525 423 199.65 425.375C198.796 427.729 197.338 429.511 195.275 430.719C193.233 431.906 190.442 432.5 186.9 432.5ZM184.525 404.031H189.838V397.719C189.838 396.031 189.629 394.823 189.213 394.094C188.796 393.344 188.171 392.969 187.338 392.969C186.442 392.969 185.744 393.323 185.244 394.031C184.765 394.74 184.525 395.969 184.525 397.719V404.031ZM224.225 432V385.125H235.413V391.094C235.829 389.302 236.6 387.781 237.725 386.531C238.871 385.261 240.454 384.625 242.475 384.625C245.725 384.625 248.079 385.625 249.538 387.625C251.017 389.625 251.756 392.365 251.756 395.844V432H240.725V397C240.725 396.084 240.538 395.24 240.163 394.469C239.788 393.677 239.142 393.281 238.225 393.281C237.371 393.281 236.735 393.584 236.319 394.188C235.923 394.771 235.673 395.511 235.569 396.406C235.465 397.281 235.413 398.156 235.413 399.031V432H224.225ZM284.988 432.5C281.967 432.5 279.925 431.865 278.863 430.594C277.821 429.302 277.3 427.334 277.3 424.688V395.469H274.144V386.938H277.3V377H288.175V386.938H291.331V395.469H288.175V422.063C288.175 422.834 288.3 423.375 288.55 423.688C288.8 424 289.279 424.156 289.988 424.156C290.488 424.156 290.935 424.115 291.331 424.031V431.656C291.081 431.74 290.3 431.896 288.988 432.125C287.675 432.375 286.342 432.5 284.988 432.5ZM314.062 382.25V372.938H325.25V382.25H314.062ZM314.062 432V385.125H325.25V432H314.062ZM349.919 432V395.719H347.888V387.188H349.919V384C349.919 378.959 352.44 376.438 357.481 376.438C359.856 376.438 361.773 376.74 363.231 377.344V384.25C362.71 384.146 362.367 384.094 362.2 384.094C361.554 384.094 361.158 384.334 361.013 384.813C360.867 385.271 360.794 385.865 360.794 386.594V387.188H363.231V395.844H361.013V432H349.919ZM385.119 439.813V432.719H390.494C391.306 432.719 391.712 432.438 391.712 431.875C391.712 431.584 391.681 431.281 391.619 430.969L384.275 385.125H394.994L398.119 419.625L401.806 385.125H412.587L403.9 434.438C403.587 436.209 402.983 437.542 402.087 438.438C401.212 439.354 399.765 439.813 397.744 439.813H385.119Z" fill="#1F555F"/>
</svg>
